<?xml version="1.0" encoding="UTF-8" standalone="no"?>
<!-- Created with Inkscape (http://www.inkscape.org/) -->

<svg
   xmlns:dc="http://purl.org/dc/elements/1.1/"
   xmlns:cc="http://creativecommons.org/ns#"
   xmlns:rdf="http://www.w3.org/1999/02/22-rdf-syntax-ns#"
   xmlns:svg="http://www.w3.org/2000/svg"
   xmlns="http://www.w3.org/2000/svg"
   xmlns:sodipodi="http://sodipodi.sourceforge.net/DTD/sodipodi-0.dtd"
   xmlns:inkscape="http://www.inkscape.org/namespaces/inkscape"
   version="1.1"
   width="531.49561"
   height="155.155"
   id="svg5567"
   inkscape:version="0.48.4 r9939"
   sodipodi:docname="logo-inria.svg"
   inkscape:export-filename="logo-inria.png"
   inkscape:export-xdpi="90"
   inkscape:export-ydpi="90">
  <sodipodi:namedview
     pagecolor="#ffffff"
     bordercolor="#666666"
     borderopacity="1"
     objecttolerance="10"
     gridtolerance="10"
     guidetolerance="10"
     inkscape:pageopacity="0"
     inkscape:pageshadow="2"
     inkscape:window-width="1920"
     inkscape:window-height="1056"
     id="namedview74"
     showgrid="false"
     inkscape:zoom="1.0987861"
     inkscape:cx="-49.223608"
     inkscape:cy="52.06437"
     inkscape:window-x="0"
     inkscape:window-y="24"
     inkscape:window-maximized="1"
     inkscape:current-layer="layer1"
     fit-margin-top="0"
     fit-margin-left="0"
     fit-margin-right="0"
     fit-margin-bottom="0" />
  <defs
     id="defs5569">
    <clipPath
       id="clipPath2402">
      <path
         d="m 0,841.89 595.276,0 L 595.276,0 0,0 0,841.89 z"
         id="path2404"
         inkscape:connector-curvature="0" />
    </clipPath>
    <clipPath
       id="clipPath2382">
      <path
         d="m 167.674,685.688 c -4.781,-4.088 -9.703,-8.604 -14.203,-13.878 l 0,0 c -2.631,-3.073 10,-1.8 15.764,1.673 l 0,0 c 5.814,3.502 11.798,8.189 17.171,13.641 l 0,0 c 1.688,1.713 -0.283,2.431 -3.535,2.431 l 0,0 c -4.845,0 -12.535,-1.594 -15.197,-3.867 M 139.371,657.586 C 115.868,633.93 92.207,607.537 85.535,586.993 l 0,0 c -3.687,-11.358 -0.284,-21.562 13.829,-21.562 l 0,0 c 11.586,0 24.419,5.74 35.318,12.556 l 0,0 c -2.68,-3.656 -5.13,-6.977 -7.095,-9.651 l 0,0 c -3.076,-4.167 12.519,-2.644 15.808,1.554 l 0,0 c 12.335,15.777 41.969,35.189 50.221,35.189 l 0,0 c 7.508,0 -18.357,-19.383 -18.117,-31.248 l 0,0 c 0.3,-15.583 36.394,-6.039 48.642,9.999 l 0,0 c 1.92,2.5 0.422,9.389 -1.307,7.713 l 0,0 c -5.603,-5.474 -17.872,-14.635 -28.595,-14.635 l 0,0 c -7.932,0 7.867,14.21 15.69,25.666 l 0,0 c 7.468,10.944 1.361,14.221 -4.806,14.221 l 0,0 c -15.269,0 -30.182,-10.717 -40.293,-18.254 l 0,0 c 3.054,4.089 7.809,9.332 12.881,16.026 l 0,0 c 2.81,3.717 -14.025,2.384 -18.333,-3.288 l 0,0 c -1.373,-1.795 -2.887,-3.809 -4.502,-5.961 l 0,0 c -14.61,-17.563 -36.681,-29.412 -47.511,-29.412 l 0,0 c -6.037,0 -8.234,4.157 -4.476,12.016 l 0,0 c 9.057,18.948 40.266,54.953 57.228,70.718 l 0,0 c 3.265,3.06 0.985,4.294 -3.129,4.294 l 0,0 c -5.588,0 -14.56,-2.277 -17.617,-5.348 m 199.818,-15.21 c -4.789,-4.094 -12.747,-11.426 -17.25,-16.703 l 0,0 c -2.624,-3.078 8.1,-2.769 13.864,0.701 l 0,0 c 5.81,3.501 16.74,11.986 22.119,17.436 l 0,0 c 1.688,1.713 -0.286,2.431 -3.539,2.431 l 0,0 c -4.847,0 -12.534,-1.593 -15.194,-3.865 M 229.936,599.812 c -2.419,-2.841 -1.167,-9.955 1.332,-7.486 l 0,0 c 15.649,15.481 15.293,14.22 36.009,14.22 l 0,0 c -3.331,-3.538 -9.267,-7.068 -19.337,-19.847 l 0,0 c -8.972,-11.401 -3.102,-20.615 9.64,-20.615 l 0,0 c 7.046,0 17.563,3.305 27.183,10.084 l 0,0 c -1.152,-5.94 1.233,-10.192 10.306,-10.192 l 0,0 c 10.511,0 22.513,6.253 32.458,13.207 l 0,0 c -1.246,-7.544 2.637,-13.207 13.764,-13.207 l 0,0 c 8.561,0 18.529,3.362 28.82,12.284 l 0,0 c -0.054,-6.818 4.754,-12.233 13.717,-12.233 l 0,0 c 21.824,0 97.199,27.374 123.424,11.565 l 0,0 c 3.283,-1.972 3.137,8.303 -3.479,12.417 l 0,0 C 480.09,604.764 415.322,579.051 390.756,576.121 l 0,0 c -4.604,-0.55 -6.28,0.612 -5.193,3.736 l 0,0 c 2.083,6.023 10.295,17.1 11.947,20.915 l 0,0 c 1.558,3.643 1.346,16.165 -17.176,16.165 l 0,0 c -15.135,0 -29.02,-7.028 -38.779,-15.875 l 0,0 c -9.299,-7.93 -27.315,-23.62 -38.406,-23.62 l 0,0 c -11.48,0 22.144,34.687 24.001,36.437 l 0,0 c 4.999,4.689 -10.759,3.532 -17.381,-1.512 l 0,0 c -2.644,-2.013 -13.214,-13.317 -19.825,-24.265 l 0,0 c -19.121,-13.217 -38.156,-16.285 -29.098,-5.298 l 0,0 c 4.814,5.856 12.962,13.699 18.566,19.912 l 0,0 c 7.822,8.676 6.41,14.384 -10.863,14.384 l 0,0 c -23.122,0 -25.568,-2.012 -38.613,-17.288 m 150.232,8.687 c 11.175,0 -19.211,-32.702 -33.012,-32.702 l 0,0 c -14.31,0 14.346,32.702 33.012,32.702"
         id="path2384"
         inkscape:connector-curvature="0" />
    </clipPath>
    <radialGradient
       cx="0"
       cy="0"
       r="1"
       fx="0"
       fy="0"
       id="radialGradient2390"
       gradientUnits="userSpaceOnUse"
       gradientTransform="matrix(185.08243,0,0,-185.08243,255.94824,458.87207)"
       spreadMethod="pad">
      <stop
         id="stop2392"
         style="stop-color:#fecd1b;stop-opacity:1"
         offset="0" />
      <stop
         id="stop2394"
         style="stop-color:#e20026;stop-opacity:1"
         offset="1" />
    </radialGradient>
  </defs>
  <metadata
     id="metadata5572">
    <rdf:RDF>
      <cc:Work
         rdf:about="">
        <dc:format>image/svg+xml</dc:format>
        <dc:type
           rdf:resource="http://purl.org/dc/dcmitype/StillImage" />
        <dc:title />
      </cc:Work>
    </rdf:RDF>
  </metadata>
  <g
     transform="translate(345.7478,-184.64825)"
     id="layer1">
    <g
       transform="matrix(1.25,0,0,-1.25,-450.94158,1046.592)"
       id="g2378">
      <g
         clip-path="url(#clipPath2382)"
         id="g2380">
        <g
           id="g2386">
          <g
             id="g2388">
            <path
               d="m 167.674,685.688 c -4.781,-4.088 -9.703,-8.604 -14.203,-13.878 l 0,0 c -2.631,-3.073 10,-1.8 15.764,1.673 l 0,0 c 5.814,3.502 11.798,8.189 17.171,13.641 l 0,0 c 1.688,1.713 -0.283,2.431 -3.535,2.431 l 0,0 c -4.845,0 -12.535,-1.594 -15.197,-3.867 M 139.371,657.586 C 115.868,633.93 92.207,607.537 85.535,586.993 l 0,0 c -3.687,-11.358 -0.284,-21.562 13.829,-21.562 l 0,0 c 11.586,0 24.419,5.74 35.318,12.556 l 0,0 c -2.68,-3.656 -5.13,-6.977 -7.095,-9.651 l 0,0 c -3.076,-4.167 12.519,-2.644 15.808,1.554 l 0,0 c 12.335,15.777 41.969,35.189 50.221,35.189 l 0,0 c 7.508,0 -18.357,-19.383 -18.117,-31.248 l 0,0 c 0.3,-15.583 36.394,-6.039 48.642,9.999 l 0,0 c 1.92,2.5 0.422,9.389 -1.307,7.713 l 0,0 c -5.603,-5.474 -17.872,-14.635 -28.595,-14.635 l 0,0 c -7.932,0 7.867,14.21 15.69,25.666 l 0,0 c 7.468,10.944 1.361,14.221 -4.806,14.221 l 0,0 c -15.269,0 -30.182,-10.717 -40.293,-18.254 l 0,0 c 3.054,4.089 7.809,9.332 12.881,16.026 l 0,0 c 2.81,3.717 -14.025,2.384 -18.333,-3.288 l 0,0 c -1.373,-1.795 -2.887,-3.809 -4.502,-5.961 l 0,0 c -14.61,-17.563 -36.681,-29.412 -47.511,-29.412 l 0,0 c -6.037,0 -8.234,4.157 -4.476,12.016 l 0,0 c 9.057,18.948 40.266,54.953 57.228,70.718 l 0,0 c 3.265,3.06 0.985,4.294 -3.129,4.294 l 0,0 c -5.588,0 -14.56,-2.277 -17.617,-5.348 m 199.818,-15.21 c -4.789,-4.094 -12.747,-11.426 -17.25,-16.703 l 0,0 c -2.624,-3.078 8.1,-2.769 13.864,0.701 l 0,0 c 5.81,3.501 16.74,11.986 22.119,17.436 l 0,0 c 1.688,1.713 -0.286,2.431 -3.539,2.431 l 0,0 c -4.847,0 -12.534,-1.593 -15.194,-3.865 M 229.936,599.812 c -2.419,-2.841 -1.167,-9.955 1.332,-7.486 l 0,0 c 15.649,15.481 15.293,14.22 36.009,14.22 l 0,0 c -3.331,-3.538 -9.267,-7.068 -19.337,-19.847 l 0,0 c -8.972,-11.401 -3.102,-20.615 9.64,-20.615 l 0,0 c 7.046,0 17.563,3.305 27.183,10.084 l 0,0 c -1.152,-5.94 1.233,-10.192 10.306,-10.192 l 0,0 c 10.511,0 22.513,6.253 32.458,13.207 l 0,0 c -1.246,-7.544 2.637,-13.207 13.764,-13.207 l 0,0 c 8.561,0 18.529,3.362 28.82,12.284 l 0,0 c -0.054,-6.818 4.754,-12.233 13.717,-12.233 l 0,0 c 21.824,0 97.199,27.374 123.424,11.565 l 0,0 c 3.283,-1.972 3.137,8.303 -3.479,12.417 l 0,0 C 480.09,604.764 415.322,579.051 390.756,576.121 l 0,0 c -4.604,-0.55 -6.28,0.612 -5.193,3.736 l 0,0 c 2.083,6.023 10.295,17.1 11.947,20.915 l 0,0 c 1.558,3.643 1.346,16.165 -17.176,16.165 l 0,0 c -15.135,0 -29.02,-7.028 -38.779,-15.875 l 0,0 c -9.299,-7.93 -27.315,-23.62 -38.406,-23.62 l 0,0 c -11.48,0 22.144,34.687 24.001,36.437 l 0,0 c 4.999,4.689 -10.759,3.532 -17.381,-1.512 l 0,0 c -2.644,-2.013 -13.214,-13.317 -19.825,-24.265 l 0,0 c -19.121,-13.217 -38.156,-16.285 -29.098,-5.298 l 0,0 c 4.814,5.856 12.962,13.699 18.566,19.912 l 0,0 c 7.822,8.676 6.41,14.384 -10.863,14.384 l 0,0 c -23.122,0 -25.568,-2.012 -38.613,-17.288 m 150.232,8.687 c 11.175,0 -19.211,-32.702 -33.012,-32.702 l 0,0 c -14.31,0 14.346,32.702 33.012,32.702"
               id="path2396"
               style="fill:url(#radialGradient2390);stroke:none"
               inkscape:connector-curvature="0" />
          </g>
        </g>
      </g>
    </g>
  </g>
</svg>
