<?xml version="1.0" encoding="UTF-8" standalone="no"?>
<!-- Created with Inkscape (http://www.inkscape.org/) -->

<svg
   xmlns:dc="http://purl.org/dc/elements/1.1/"
   xmlns:cc="http://creativecommons.org/ns#"
   xmlns:rdf="http://www.w3.org/1999/02/22-rdf-syntax-ns#"
   xmlns:svg="http://www.w3.org/2000/svg"
   xmlns="http://www.w3.org/2000/svg"
   xmlns:sodipodi="http://sodipodi.sourceforge.net/DTD/sodipodi-0.dtd"
   xmlns:inkscape="http://www.inkscape.org/namespaces/inkscape"
   width="20"
   height="16"
   id="svg2"
   version="1.1"
   inkscape:version="0.48.4 r9939"
   sodipodi:docname="me.svg"
   inkscape:export-filename="me.png"
   inkscape:export-xdpi="90"
   inkscape:export-ydpi="90">
  <sodipodi:namedview
     pagecolor="#ffffff"
     bordercolor="#666666"
     borderopacity="1"
     objecttolerance="10"
     gridtolerance="10"
     guidetolerance="10"
     inkscape:pageopacity="0"
     inkscape:pageshadow="2"
     inkscape:window-width="1302"
     inkscape:window-height="896"
     id="namedview10"
     showgrid="false"
     inkscape:zoom="14.75"
     inkscape:cx="17.305708"
     inkscape:cy="13.830391"
     inkscape:window-x="0"
     inkscape:window-y="24"
     inkscape:window-maximized="0"
     inkscape:current-layer="layer1" />
  <defs
     id="defs4" />
  <metadata
     id="metadata7">
    <rdf:RDF>
      <cc:Work
         rdf:about="">
        <dc:format>image/svg+xml</dc:format>
        <dc:type
           rdf:resource="http://purl.org/dc/dcmitype/StillImage" />
        <dc:title />
      </cc:Work>
    </rdf:RDF>
  </metadata>
  <g
     inkscape:label="Layer 1"
     inkscape:groupmode="layer"
     id="layer1"
     transform="translate(0,-1036.3622)">
    <path
       style="fill:#e7d7d4"
       d="m 13.278849,1036.2442 c 0.124382,0.5338 0.576448,2.4843 0.375,3.6563 -0.148926,0.8664 -0.977108,1.5084 -1.125,2.375 -0.134071,0.7856 0.344989,1.5837 0.25,2.375 -0.28907,2.4079 -2.058797,6.3255 -2.75,7.7812 l -1.84375,0 -8.09375,0 0,-8.0937 0,-8.0938 8.09375,0 5.09375,0 z"
       id="path3004"
       inkscape:connector-curvature="0" />
    <path
       style="fill:#936a5f"
       d="m 0.09375,-0.125 0,2.0625 0,4.15625 0,6.09375 0,0.09375 L 1.5,13.375 c 0.77839,0.5912 1.890518,1.4291 2.46875,1.875 l 1.0625,0.8125 0.03125,0 2.3125,0 0.03125,0 c 0.5781874,-1.03e-4 1.0069195,0.0094 1.34375,0 0.5461435,-0.01033 0.7582959,-0.06401 0.875,-0.125 0.1839861,-0.04634 0.3139267,-0.0855 0.40625,-0.1875 0.483649,-0.5344 0.264778,-0.889 -0.5625,-0.9375 C 9.069203,14.7895 8.244067,14.6387 7.65625,14.5 6.759068,14.2882 6.460979,14.1156 5.75,13.4375 4.942046,12.6669 4.925702,12.63305 5.1875,12.34375 5.538197,11.95625 5.308176,11.1872 4.8125,11.0625 4.625947,11.0155 4.319537,10.7487 4.125,10.5 3.80499,10.091 3.6922,10.06185 3.0625,10.15625 2.469381,10.24525 2.367023,10.2142 2.21875,9.9375 2.100542,9.7166 1.912191,9.65995 1.6875,9.71875 1.371581,9.80175 1.363779,9.73315 1.4375,8.59375 1.47995,7.93775 1.4352,7.12925 1.34375,6.78125 1.220124,6.31065 1.254703,6.0332 1.40625,5.75 1.576533,5.4318 1.54654,5.27205 1.3125,4.78125 l -0.28125,-0.5625 0.5,-0.53125 C 1.868399,3.3396 2.077695,2.92275 2.1875,2.34375 2.27553,1.87955 2.451215,1.2756 2.59375,1 3.157345,-0.0899 3.138113,-0.125 1.53125,-0.125 l -0.125,0 z M 8.1875,2.0625 C 8.054982,2.0755133 7.9405359,2.096 7.84375,2.125 7.504555,2.2266 7.179297,2.38095 7.125,2.46875 7.0707,2.55675 6.750608,2.7442 6.4375,2.875 5.690777,3.187 5.82772,3.463 6.8125,3.6875 7.251703,3.7877 7.774441,3.957 7.96875,4.0625 8.460283,4.3293 8.962367,4.2897 9.625,3.9375 10.369203,3.542 10.987639,2.88735 10.875,2.59375 10.752352,2.2742 9.1151262,1.971407 8.1875,2.0625 z M 12.75,2.84375 C 12.182274,2.8142234 11.681635,3.33055 11.8125,4 c 0.21976,1.1237 0.715758,1.1625 1.375,0.125 l 0.5,-0.75 -0.375,-0.3125 C 13.136872,2.919625 12.939242,2.8535922 12.75,2.84375 z M 9.0625,7.78125 C 8.9432223,7.7983734 8.9349025,7.878525 8.96875,8.0625 9.00151,8.2404 9.0074,8.64975 9,8.96875 c -0.01314,0.5669 0.015666,0.5661 0.8125,0.75 0.44846,0.1035 0.997889,0.1875 1.21875,0.1875 0.220861,0 0.353465,0.0587 0.3125,0.125 -0.04096,0.067 -0.847428,0.07625 -1.8125,0.03125 L 7.78125,10 7.8125,9.5625 c 0.06817,-0.6513 -0.568947,-0.60895 -1.25,0.09375 -0.61358,0.633 -0.604761,1.111 0,1.1875 0.221487,0.028 0.841247,0.2084 1.375,0.375 0.533754,0.1665 1.171881,0.34925 1.4375,0.40625 0.449325,0.097 0.45323,0.11505 0.15625,0.28125 C 9.092803,12.15165 8.662737,12.689 8.65625,13 c -0.0071,0.3415 0.511202,0.8125 0.90625,0.8125 0.192311,0 0.481112,-0.2728 0.75,-0.6875 0.550132,-0.8484 0.55393,-0.98535 0,-1.21875 C 9.877484,11.72295 9.894538,11.7066 10.5,11.75 c 0.566179,0.041 0.617127,-5e-5 0.875,-0.53125 0.155081,-0.3166 0.379934,-0.9122 0.5,-1.3125 C 11.995067,9.50595 12.290844,9.0181 12.5,8.8125 12.709155,8.607 12.82561,8.3843 12.78125,8.3125 12.6949,8.1728 11.658139,7.9815 10.34375,7.875 9.898956,7.839 9.396667,7.80405 9.21875,7.78125 c -0.061281,-0.008 -0.1164908,-0.00571 -0.15625,0 z"
       transform="translate(0,1036.3622)"
       id="path3002"
       inkscape:connector-curvature="0"
       sodipodi:nodetypes="ccccccccccccccccsccccccscccccscsccscccccccssccccssccssccccccccccscsccsccccs" />
  </g>
</svg>
