<?xml version="1.0" encoding="UTF-8" standalone="no"?>
<!-- Created with Inkscape (http://www.inkscape.org/) -->

<svg
   xmlns:dc="http://purl.org/dc/elements/1.1/"
   xmlns:cc="http://creativecommons.org/ns#"
   xmlns:rdf="http://www.w3.org/1999/02/22-rdf-syntax-ns#"
   xmlns:svg="http://www.w3.org/2000/svg"
   xmlns="http://www.w3.org/2000/svg"
   xmlns:sodipodi="http://sodipodi.sourceforge.net/DTD/sodipodi-0.dtd"
   xmlns:inkscape="http://www.inkscape.org/namespaces/inkscape"
   width="20"
   height="16"
   id="svg2"
   version="1.1"
   inkscape:version="0.48.4 r9939"
   sodipodi:docname="skills.svg"
   inkscape:export-filename="skills.png"
   inkscape:export-xdpi="90"
   inkscape:export-ydpi="90">
  <defs
     id="defs4" />
  <sodipodi:namedview
     id="base"
     pagecolor="#ffffff"
     bordercolor="#666666"
     borderopacity="1.0"
     inkscape:pageopacity="0.0"
     inkscape:pageshadow="2"
     inkscape:zoom="16.069002"
     inkscape:cx="17.678322"
     inkscape:cy="-4.226923"
     inkscape:document-units="px"
     inkscape:current-layer="layer1"
     showgrid="true"
     inkscape:window-width="1920"
     inkscape:window-height="1056"
     inkscape:window-x="0"
     inkscape:window-y="24"
     inkscape:window-maximized="1"
     inkscape:snap-global="false">
    <inkscape:grid
       type="xygrid"
       id="grid2987"
       empspacing="5"
       visible="true"
       enabled="true"
       snapvisiblegridlinesonly="true" />
  </sodipodi:namedview>
  <metadata
     id="metadata7">
    <rdf:RDF>
      <cc:Work
         rdf:about="">
        <dc:format>image/svg+xml</dc:format>
        <dc:type
           rdf:resource="http://purl.org/dc/dcmitype/StillImage" />
        <dc:title></dc:title>
      </cc:Work>
    </rdf:RDF>
  </metadata>
  <g
     inkscape:label="Layer 1"
     inkscape:groupmode="layer"
     id="layer1"
     transform="translate(0,-1036.3622)">
    <path
       sodipodi:nodetypes="cssccccccccccccsssss"
       inkscape:connector-curvature="0"
       id="path3777"
       d="m 5.1631909,1040.818 c -2.4231529,0 -4.40165066,2.4409 -4.40165066,5.4687 0,3.0278 1.97849776,5.5 4.40165066,5.5 1.6067314,0 3.0037056,-1.1088 3.7680799,-2.7187 l 1.9674052,0.031 0.549248,-0.9367 1.160518,1.1245 1.766096,-2.6274 2.233751,2.6619 1.964041,-2.6057 0.01166,-1.0147 -1.26518,-1.7266 -8.1874682,0 c -0.7000014,-1.8658 -2.2099765,-3.1562 -3.968155,-3.1562 z m -1.7673294,3.3125 c 0.7225499,0 1.3004877,0.8731 1.3004877,1.9687 0,1.0957 -0.5779378,2 -1.3004877,2 -0.7225499,0 -1.3004877,-0.9043 -1.3004877,-2 0,-1.0956 0.5779378,-1.9687 1.3004877,-1.9687 z"
       style="fill:#4d4d4d;fill-opacity:1;stroke:none" />
    <path
       style="fill:#000000;fill-opacity:1;stroke:none"
       d="m 6.2833601,1040.818 c -2.4231529,0 -4.4016507,2.4409 -4.4016507,5.4687 0,3.0278 1.9784978,5.5 4.4016507,5.5 1.6067314,0 3.0037056,-1.1088 3.7680799,-2.7187 l 1.967405,0.031 0.549248,-0.9367 1.160518,1.1245 1.766096,-2.6274 2.233751,2.6619 1.964041,-2.6057 0.01166,-1.0147 -1.26518,-1.7266 -8.187468,0 c -0.7000014,-1.8658 -2.2099765,-3.1562 -3.968155,-3.1562 z m -1.7673294,3.3125 c 0.7225499,0 1.3004877,0.8731 1.3004877,1.9687 0,1.0957 -0.5779378,2 -1.3004877,2 -0.7225499,0 -1.3004877,-0.9043 -1.3004877,-2 0,-1.0956 0.5779378,-1.9687 1.3004877,-1.9687 z"
       id="path2987"
       inkscape:connector-curvature="0"
       sodipodi:nodetypes="cssccccccccccccsssss" />
  </g>
</svg>
